<?xml version="1.0" encoding="UTF-8" standalone="no"?><!DOCTYPE svg PUBLIC "-//W3C//DTD SVG 1.1//EN" "http://www.w3.org/Graphics/SVG/1.1/DTD/svg11.dtd"><svg width="100%" height="100%" viewBox="0 0 522 188" version="1.1" xmlns="http://www.w3.org/2000/svg" xmlns:xlink="http://www.w3.org/1999/xlink" xml:space="preserve" xmlns:serif="http://www.serif.com/" style="fill-rule:evenodd;clip-rule:evenodd;stroke-linejoin:round;stroke-miterlimit:2;"><path d="M521.683,1.774c0,-0.979 -0.795,-1.774 -1.774,-1.774l-518.135,0c-0.979,0 -1.774,0.795 -1.774,1.774l0,183.507c0,0.979 0.795,1.774 1.774,1.774l518.135,0c0.979,0 1.774,-0.795 1.774,-1.774l0,-183.507Zm-276.309,117.688l0,-15.42l-40.654,-0l0,64.486l40.654,-0l0,-15.421l-24.766,-0l-0,-9.346l16.822,0l0,-14.953l-16.822,-0l-0,-9.346l24.766,0Zm-222.336,49.066l20.841,-0c10.841,-0 19.72,-7.944 19.72,-19.814c-0,-5.514 -1.87,-10.654 -5.701,-13.925c-3.458,-2.99 -8.598,-4.486 -14.954,-6.355c-2.897,-0.841 -4.205,-2.617 -4.205,-4.953c-0,-2.243 1.215,-4.019 4.486,-4.019l12.43,0l-0,-15.42l-8.692,-0c-6.448,-0 -8.224,0.186 -9.813,0.56c-9.346,1.963 -14.299,9.626 -14.299,18.785c-0,5.234 1.589,9.813 5.047,13.365c3.177,3.271 7.009,4.486 15.42,7.29c2.243,0.747 4.393,2.429 4.393,4.953c-0,2.243 -1.776,4.112 -5.701,4.112l-18.972,-0l-0,15.421Zm89.252,-0l20.841,-0c10.841,-0 19.72,-7.944 19.72,-19.814c-0,-5.514 -1.869,-10.654 -5.701,-13.925c-3.458,-2.99 -8.598,-4.486 -14.953,-6.355c-2.897,-0.841 -4.206,-2.617 -4.206,-4.953c0,-2.243 1.215,-4.019 4.486,-4.019l12.43,0l0,-15.42l-8.692,-0c-6.448,-0 -8.224,0.186 -9.813,0.56c-9.345,1.963 -14.299,9.626 -14.299,18.785c0,5.234 1.589,9.813 5.047,13.365c3.178,3.271 7.009,4.486 15.421,7.29c2.243,0.747 4.392,2.429 4.392,4.953c0,2.243 -1.776,4.112 -5.701,4.112l-18.972,-0l0,15.421Zm140.561,-0l15.888,-0l-0,-48.599c6.075,0.281 13.084,4.58 13.084,13.552l-0,35.047l14.579,-0l0,-35.047c0,-8.972 7.01,-13.271 13.084,-13.552l0,48.599l15.888,-0l0,-64.486l-15.888,-0c-8.691,-0 -17.102,4.672 -20.373,9.345c-3.271,-4.673 -11.683,-9.345 -20.374,-9.345l-15.888,-0l-0,64.486Zm-55.608,-64.486l-44.859,-0l-0,15.42l14.486,0l-0,49.066l15.888,-0l-0,-49.066l14.485,0l0,-15.42Zm-118.224,64.486l15.888,-0l0,-31.776l17.29,-32.71l-16.823,-0l-8.411,15.887l-8.411,-15.887l-16.823,-0l17.29,32.71l0,31.776Zm235.14,-82.711c18.879,0 33.832,-14.953 33.832,-33.738c0,-18.692 -14.953,-33.551 -33.832,-33.551c-18.785,-0 -33.644,14.859 -33.644,33.551c-0,18.785 14.859,33.738 33.644,33.738Zm-52.149,-16.822l-0,-49.066l-15.888,0l-0,64.486l31.776,0l-0,-15.42l-15.888,-0Zm-24.299,15.42l0.934,0l0,-15.42l-0.934,-0c-5.327,-0 -9.066,-1.028 -12.056,-3.084c-4.112,-2.804 -7.103,-8.131 -7.103,-13.739c-0,-5.607 2.991,-10.934 7.103,-13.738c2.99,-2.056 6.729,-3.084 12.056,-3.084l0.934,-0l0,-15.421l-0.934,0c-5.14,0 -8.318,0.374 -11.215,1.122c-13.645,3.458 -23.832,16.075 -23.832,31.121c0,14.86 10.094,27.57 23.738,31.122c2.991,0.748 6.356,1.121 11.309,1.121Zm203.177,-49.065l0,-15.421l-40.654,0l0,64.486l40.654,0l0,-15.42l-24.766,-0l-0,-9.346l16.822,0l0,-14.953l-16.822,-0l-0,-9.346l24.766,-0Zm-266.822,-0l-0,-15.421l-40.654,0l-0,64.486l40.654,0l-0,-15.42l-24.766,-0l-0,-9.346l16.822,0l-0,-14.953l-16.822,-0l-0,-9.346l24.766,-0Zm179.065,49.065l20.841,0c10.842,0 19.72,-7.944 19.72,-19.813c0,-5.514 -1.869,-10.654 -5.701,-13.925c-3.458,-2.991 -8.598,-4.486 -14.953,-6.355c-2.897,-0.841 -4.206,-2.617 -4.206,-4.953c0,-2.243 1.215,-4.019 4.486,-4.019l12.43,-0l0,-15.421l-8.691,0c-6.449,0 -8.225,0.187 -9.814,0.561c-9.345,1.963 -14.299,9.626 -14.299,18.785c0,5.234 1.589,9.813 5.047,13.365c3.178,3.271 7.009,4.486 15.421,7.289c2.243,0.748 4.392,2.43 4.392,4.954c0,2.243 -1.775,4.112 -5.701,4.112l-18.972,-0l0,15.42Zm-285.14,-64.486l-44.86,0l0,15.421l14.486,-0l0,49.065l15.888,0l0,-49.065l14.486,-0l0,-15.421Zm42.056,0l0,24.767l-18.691,-0l-0,-24.767l-15.888,0l-0,64.486l15.888,0l-0,-24.766l18.691,0l0,24.766l15.888,0l0,-64.486l-15.888,0Zm338.318,64.486l11.215,0c8.598,0 13.738,-0.747 17.85,-2.149c11.776,-4.019 21.402,-15.234 21.402,-30c0,-17.196 -13.084,-29.346 -26.261,-31.589c-2.617,-0.467 -6.916,-0.748 -12.991,-0.748l-11.215,0l-0,64.486Zm-134.112,-14.112c-9.907,0 -17.851,-8.131 -17.851,-18.037c0,-9.813 7.944,-18.224 17.851,-18.224c9.719,-0 17.85,8.411 17.85,18.224c0,9.906 -8.131,18.037 -17.85,18.037Zm150,-1.308l-0,-33.645c12.149,-0 18.691,7.944 18.691,16.822c0,8.879 -6.542,16.823 -18.691,16.823Z" style="fill:#525252;"/></svg>