<?xml version="1.0" encoding="UTF-8" standalone="no"?>
<!DOCTYPE svg PUBLIC "-//W3C//DTD SVG 1.1//EN" "http://www.w3.org/Graphics/SVG/1.1/DTD/svg11.dtd">
<svg width="100%" height="100%" viewBox="0 0 210 210" version="1.1" xmlns="http://www.w3.org/2000/svg" xmlns:xlink="http://www.w3.org/1999/xlink" xml:space="preserve" xmlns:serif="http://www.serif.com/" style="fill-rule:evenodd;clip-rule:evenodd;stroke-linejoin:round;stroke-miterlimit:2;">
    <g transform="matrix(1,0,0,1,-793.391,-574.753)">
        <g transform="matrix(0.92316,0,0,1.0877,-253.64,102.455)">
            <rect x="1134.18" y="434.218" width="227.48" height="193.068" style="fill:none;"/>
            <g transform="matrix(221.745,0,0,188.201,1150.57,572.25)">
                <path d="M0.65,-0.413L0.62,-0.164C0.618,-0.148 0.617,-0.132 0.617,-0.116C0.617,-0.109 0.619,-0.104 0.622,-0.1C0.625,-0.096 0.629,-0.094 0.634,-0.094C0.649,-0.094 0.664,-0.099 0.677,-0.109C0.69,-0.119 0.701,-0.132 0.711,-0.149C0.72,-0.166 0.728,-0.185 0.733,-0.206C0.738,-0.227 0.741,-0.249 0.741,-0.272C0.741,-0.31 0.734,-0.345 0.719,-0.376C0.704,-0.407 0.684,-0.434 0.659,-0.456C0.633,-0.478 0.603,-0.495 0.568,-0.507C0.533,-0.519 0.496,-0.525 0.456,-0.525C0.41,-0.525 0.368,-0.517 0.329,-0.502C0.29,-0.486 0.256,-0.464 0.228,-0.438C0.199,-0.411 0.177,-0.378 0.161,-0.341C0.145,-0.304 0.137,-0.264 0.137,-0.221C0.137,-0.173 0.146,-0.13 0.163,-0.092C0.18,-0.054 0.204,-0.022 0.234,0.004C0.263,0.03 0.298,0.05 0.338,0.064C0.377,0.077 0.419,0.084 0.464,0.084C0.49,0.084 0.513,0.083 0.533,0.082C0.553,0.08 0.572,0.077 0.59,0.072C0.607,0.067 0.624,0.061 0.641,0.053C0.657,0.045 0.675,0.035 0.694,0.022L0.737,0.106C0.696,0.131 0.654,0.15 0.61,0.163C0.565,0.175 0.517,0.181 0.465,0.181C0.4,0.181 0.341,0.17 0.289,0.149C0.236,0.128 0.192,0.099 0.155,0.062C0.118,0.025 0.09,-0.017 0.07,-0.066C0.05,-0.115 0.04,-0.166 0.04,-0.221C0.04,-0.278 0.051,-0.33 0.072,-0.379C0.093,-0.428 0.123,-0.47 0.16,-0.506C0.197,-0.542 0.241,-0.57 0.292,-0.591C0.342,-0.612 0.396,-0.622 0.455,-0.622C0.509,-0.622 0.559,-0.613 0.606,-0.595C0.653,-0.577 0.693,-0.552 0.728,-0.521C0.762,-0.49 0.789,-0.453 0.809,-0.411C0.828,-0.368 0.838,-0.323 0.838,-0.275C0.838,-0.234 0.833,-0.197 0.823,-0.164C0.812,-0.13 0.798,-0.101 0.779,-0.077C0.76,-0.052 0.737,-0.033 0.71,-0.02C0.683,-0.007 0.653,-0 0.62,-0C0.602,-0 0.586,-0.005 0.572,-0.014C0.557,-0.023 0.545,-0.036 0.534,-0.052C0.512,-0.03 0.491,-0.016 0.471,-0.011C0.451,-0.005 0.432,-0.002 0.415,-0.002C0.394,-0.002 0.372,-0.007 0.349,-0.018C0.326,-0.028 0.305,-0.042 0.286,-0.061C0.267,-0.08 0.251,-0.102 0.238,-0.128C0.225,-0.154 0.219,-0.183 0.219,-0.214C0.219,-0.245 0.225,-0.273 0.237,-0.299C0.249,-0.324 0.265,-0.346 0.284,-0.365C0.303,-0.383 0.326,-0.397 0.351,-0.407C0.376,-0.417 0.401,-0.422 0.427,-0.422C0.456,-0.422 0.481,-0.417 0.502,-0.406C0.523,-0.395 0.539,-0.38 0.549,-0.362L0.558,-0.413L0.65,-0.413ZM0.328,-0.215C0.328,-0.202 0.331,-0.189 0.336,-0.176C0.341,-0.163 0.349,-0.152 0.358,-0.143C0.367,-0.134 0.377,-0.126 0.39,-0.121C0.402,-0.115 0.415,-0.112 0.428,-0.112C0.441,-0.112 0.454,-0.115 0.467,-0.121C0.479,-0.126 0.49,-0.134 0.499,-0.143C0.507,-0.152 0.515,-0.163 0.52,-0.176C0.525,-0.189 0.528,-0.202 0.528,-0.215C0.528,-0.228 0.525,-0.241 0.52,-0.254C0.515,-0.266 0.507,-0.277 0.499,-0.287C0.49,-0.296 0.479,-0.304 0.467,-0.31C0.454,-0.315 0.441,-0.318 0.428,-0.318C0.415,-0.318 0.402,-0.315 0.39,-0.31C0.377,-0.304 0.367,-0.296 0.358,-0.287C0.349,-0.277 0.341,-0.266 0.336,-0.254C0.331,-0.241 0.328,-0.228 0.328,-0.215Z" style="fill:rgb(229,231,235);fill-rule:nonzero;"/>
            </g>
        </g>
    </g>
</svg>
