<?xml version="1.0" encoding="UTF-8" standalone="no"?><!DOCTYPE svg PUBLIC "-//W3C//DTD SVG 1.1//EN" "http://www.w3.org/Graphics/SVG/1.1/DTD/svg11.dtd"><svg width="100%" height="100%" viewBox="0 0 171 167" version="1.1" xmlns="http://www.w3.org/2000/svg" xmlns:xlink="http://www.w3.org/1999/xlink" xml:space="preserve" xmlns:serif="http://www.serif.com/" style="fill-rule:evenodd;clip-rule:evenodd;stroke-linejoin:round;stroke-miterlimit:2;"><path d="M85.47,0c-47.201,0 -85.47,38.269 -85.47,85.481c0,37.765 24.49,69.801 58.456,81.109c4.277,0.782 5.835,-1.857 5.835,-4.124c0,-2.026 -0.073,-7.404 -0.115,-14.536c-23.776,5.164 -28.793,-11.46 -28.793,-11.46c-3.888,-9.876 -9.492,-12.505 -9.492,-12.505c-7.761,-5.3 0.588,-5.195 0.588,-5.195c8.579,0.604 13.092,8.811 13.092,8.811c7.624,13.061 20.008,9.288 24.878,7.1c0.777,-5.521 2.98,-9.288 5.426,-11.424c-18.98,-2.157 -38.936,-9.493 -38.936,-42.247c-0,-9.33 3.332,-16.96 8.8,-22.937c-0.882,-2.162 -3.815,-10.851 0.834,-22.621c0,-0 7.179,-2.299 23.509,8.763c6.816,-1.9 14.131,-2.844 21.399,-2.876c7.257,0.032 14.572,0.976 21.399,2.876c16.319,-11.062 23.482,-8.763 23.482,-8.763c4.665,11.77 1.732,20.459 0.85,22.621c5.478,5.977 8.789,13.607 8.789,22.937c0,32.838 -19.987,40.064 -39.03,42.179c3.07,2.639 5.804,7.855 5.804,15.831c-0,11.424 -0.105,20.644 -0.105,23.446c-0,2.288 1.537,4.948 5.877,4.114c33.94,-11.33 58.409,-43.344 58.409,-81.099c-0,-47.212 -38.275,-85.481 -85.486,-85.481" style="fill:#e5e7eb;"/></svg>