<?xml version="1.0" encoding="UTF-8" standalone="no"?><!DOCTYPE svg PUBLIC "-//W3C//DTD SVG 1.1//EN" "http://www.w3.org/Graphics/SVG/1.1/DTD/svg11.dtd"><svg width="100%" height="100%" viewBox="0 0 165 167" version="1.1" xmlns="http://www.w3.org/2000/svg" xmlns:xlink="http://www.w3.org/1999/xlink" xml:space="preserve" xmlns:serif="http://www.serif.com/" style="fill-rule:evenodd;clip-rule:evenodd;stroke-linejoin:round;stroke-miterlimit:2;"><g><path d="M164.95,150.217c0,9.215 -7.443,16.686 -16.629,16.686l-131.691,-0c-9.186,-0 -16.63,-7.471 -16.63,-16.686l-0,-133.532c-0,-9.215 7.444,-16.685 16.63,-16.685l131.691,0c9.186,0 16.629,7.47 16.629,16.685l0,133.532Zm-12.5,0c0,2.3 -1.837,4.186 -4.129,4.186l-131.691,-0c-2.293,-0 -4.13,-1.886 -4.13,-4.186c0,0 0,-133.532 0,-133.532c0,-2.3 1.837,-4.185 4.13,-4.185l131.691,-0c2.292,-0 4.129,1.885 4.129,4.185c0,0 0,133.532 0,133.532Z" style="fill:#e5e7eb;"/><path d="M30.737,60.665l22.193,0l-0,71.395l-22.193,0l0,-71.395Zm35.473,22.776c0,-8.905 -0.291,-16.35 -0.582,-22.776l19.27,0l1.024,9.929l0.437,-0c2.92,-4.673 10.075,-11.536 22.047,-11.536c14.601,0 25.549,9.784 25.549,30.808l-0,42.194l-22.191,0l-0,-39.567c-0,-9.197 -3.213,-15.474 -11.243,-15.474c-6.133,-0 -9.781,4.233 -11.387,8.32c-0.584,1.46 -0.732,3.504 -0.732,5.549l-0,41.172l-22.192,0l0,-48.619Zm-12.552,-42.631c-0,6.13 -4.526,11.095 -11.971,11.095c-7.008,0 -11.534,-4.965 -11.534,-11.095c0,-6.278 4.671,-11.096 11.824,-11.096c7.155,-0 11.536,4.818 11.681,11.096Z" style="fill:#e5e7eb;fill-rule:nonzero;"/></g></svg>