<?xml version="1.0" encoding="UTF-8" standalone="no"?><!DOCTYPE svg PUBLIC "-//W3C//DTD SVG 1.1//EN" "http://www.w3.org/Graphics/SVG/1.1/DTD/svg11.dtd"><svg width="100%" height="100%" viewBox="0 0 152 150" version="1.1" xmlns="http://www.w3.org/2000/svg" xmlns:xlink="http://www.w3.org/1999/xlink" xml:space="preserve" xmlns:serif="http://www.serif.com/" style="fill-rule:evenodd;clip-rule:evenodd;stroke-linejoin:round;stroke-miterlimit:2;"><path d="M52.551,78.303c-0,-12.978 -0.425,-23.829 -0.849,-33.194l28.085,0l1.492,14.47l0.637,0c4.255,-6.81 14.683,-16.812 32.131,-16.812c21.28,0 37.236,14.259 37.236,44.9l0,61.495l-32.342,-0l0,-57.666c0,-13.404 -4.683,-22.553 -16.386,-22.553c-8.937,0 -14.254,6.171 -16.595,12.127c-0.852,2.127 -1.067,5.106 -1.067,8.087l0,60.005l-32.342,-0l-0,-70.859Zm-51.699,-33.194l32.343,0l0,104.053l-32.343,-0l-0,-104.053Zm33.404,-28.937c0,8.934 -6.595,16.17 -17.447,16.17c-10.212,0 -16.809,-7.236 -16.809,-16.17c-0,-9.15 6.808,-16.172 17.233,-16.172c10.428,-0 16.812,7.022 17.023,16.172Z" style="fill:#e5e7eb;fill-rule:nonzero;"/></svg>