<?xml version="1.0" encoding="UTF-8" standalone="no"?>
<!DOCTYPE svg PUBLIC "-//W3C//DTD SVG 1.1//EN" "http://www.w3.org/Graphics/SVG/1.1/DTD/svg11.dtd">
<svg width="100%" height="100%" viewBox="0 0 448 512" version="1.1" xmlns="http://www.w3.org/2000/svg" xmlns:xlink="http://www.w3.org/1999/xlink" xml:space="preserve" xmlns:serif="http://www.serif.com/" style="fill-rule:evenodd;clip-rule:evenodd;stroke-linejoin:round;stroke-miterlimit:2;">
    <path d="M100.28,448L7.4,448L7.4,148.9L100.28,148.9L100.28,448ZM53.79,108.1C24.09,108.1 0,83.5 0,53.8C-0,24.292 24.282,0.01 53.79,0.01C83.298,0.01 107.58,24.292 107.58,53.8C107.58,83.5 83.48,108.1 53.79,108.1ZM448,448L355.22,448L355.22,302.4C355.22,267.7 354.52,223.2 306.93,223.2C258.64,223.2 251.24,260.9 251.24,299.9L251.24,448L158.46,448L158.46,148.9L247.54,148.9L247.54,189.7L248.84,189.7C261.24,166.2 291.53,141.4 336.72,141.4C430.72,141.4 448,203.3 448,283.7L448,448Z" style="fill:rgb(229,231,235);fill-rule:nonzero;"/>
</svg>
