<?xml version="1.0" encoding="UTF-8" standalone="no"?><!DOCTYPE svg PUBLIC "-//W3C//DTD SVG 1.1//EN" "http://www.w3.org/Graphics/SVG/1.1/DTD/svg11.dtd"><svg width="100%" height="100%" viewBox="0 0 165 167" version="1.1" xmlns="http://www.w3.org/2000/svg" xmlns:xlink="http://www.w3.org/1999/xlink" xml:space="preserve" xmlns:serif="http://www.serif.com/" style="fill-rule:evenodd;clip-rule:evenodd;stroke-linejoin:round;stroke-miterlimit:2;"><path d="M164.95,17.192c0,-9.489 -7.703,-17.192 -17.191,-17.192l-130.567,0c-9.489,0 -17.192,7.703 -17.192,17.192l-0,132.519c-0,9.488 7.703,17.192 17.192,17.192l130.567,-0c9.488,-0 17.191,-7.704 17.191,-17.192l0,-132.519Zm-98.768,66.669c-0,-8.885 -0.291,-16.314 -0.581,-22.726l19.228,0l1.021,9.907l0.437,0c2.913,-4.663 10.052,-11.51 21.998,-11.51c14.569,-0 25.494,9.762 25.494,30.74l-0,42.103l-22.143,-0l-0,-39.481c-0,-9.177 -3.206,-15.441 -11.219,-15.441c-6.119,0 -9.759,4.225 -11.362,8.303c-0.583,1.456 -0.73,3.496 -0.73,5.537l-0,41.082l-22.143,-0l-0,-48.514Zm-35.396,-22.726l22.144,0l-0,71.24l-22.144,-0l-0,-71.24Zm22.87,-19.812c0,6.117 -4.515,11.071 -11.945,11.071c-6.992,0 -11.508,-4.954 -11.508,-11.071c-0,-6.264 4.661,-11.072 11.798,-11.072c7.14,0 11.511,4.808 11.655,11.072Z" style="fill:#e5e7eb;"/></svg>