<?xml version="1.0" encoding="UTF-8" standalone="no"?>
<!DOCTYPE svg PUBLIC "-//W3C//DTD SVG 1.1//EN" "http://www.w3.org/Graphics/SVG/1.1/DTD/svg11.dtd">
<svg width="100%" height="100%" viewBox="0 0 210 210" version="1.1" xmlns="http://www.w3.org/2000/svg" xmlns:xlink="http://www.w3.org/1999/xlink" xml:space="preserve" xmlns:serif="http://www.serif.com/" style="fill-rule:evenodd;clip-rule:evenodd;stroke-linejoin:round;stroke-miterlimit:2;">
    <g transform="matrix(1,0,0,1,-793.391,-574.753)">
        <g transform="matrix(0.92316,0,0,1.0877,-253.64,102.455)">
            <rect x="1134.18" y="434.218" width="227.48" height="193.068" style="fill:none;"/>
            <g transform="matrix(1.5146,0,0,1.28548,167.773,134.933)">
                <g transform="matrix(1,0,0,1,2.27374e-13,-9.368)">
                    <path d="M665.263,289.606L688.395,289.606L688.395,364.024L665.263,364.024L665.263,289.606ZM689.154,268.91C689.154,275.3 684.437,280.475 676.676,280.475C669.372,280.475 664.654,275.3 664.654,268.91C664.654,262.366 669.523,257.344 676.979,257.344C684.437,257.344 689.003,262.366 689.154,268.91" style="fill:rgb(229,231,235);fill-rule:nonzero;"/>
                </g>
                <g transform="matrix(1,0,0,1,702.238,329.241)">
                    <path d="M0,-25.263C0,-34.545 -0.304,-42.305 -0.607,-49.003L19.479,-49.003L20.546,-38.654L21.002,-38.654C24.045,-43.525 31.503,-50.678 43.982,-50.678C59.201,-50.678 70.613,-40.48 70.613,-18.566L70.613,25.415L47.482,25.415L47.482,-15.827C47.482,-25.414 44.133,-31.957 35.763,-31.957C29.371,-31.957 25.568,-27.544 23.894,-23.284C23.285,-21.763 23.131,-19.632 23.131,-17.5L23.131,25.415L0,25.415L0,-25.263Z" style="fill:rgb(229,231,235);fill-rule:nonzero;"/>
                </g>
            </g>
        </g>
    </g>
</svg>
