<?xml version="1.0" encoding="UTF-8" standalone="no"?><!DOCTYPE svg PUBLIC "-//W3C//DTD SVG 1.1//EN" "http://www.w3.org/Graphics/SVG/1.1/DTD/svg11.dtd"><svg width="100%" height="100%" viewBox="0 0 179 145" version="1.1" xmlns="http://www.w3.org/2000/svg" xmlns:xlink="http://www.w3.org/1999/xlink" xml:space="preserve" xmlns:serif="http://www.serif.com/" style="fill-rule:evenodd;clip-rule:evenodd;stroke-linejoin:round;stroke-miterlimit:2;"><path d="M178.074,17.131c-6.552,2.906 -13.593,4.87 -20.984,5.753c7.544,-4.521 13.336,-11.681 16.064,-20.212c-7.059,4.187 -14.877,7.227 -23.199,8.865c-6.665,-7.1 -16.16,-11.537 -26.667,-11.537c-20.177,0 -36.535,16.358 -36.535,36.533c-0,2.864 0.323,5.652 0.946,8.326c-30.363,-1.523 -57.283,-16.068 -75.302,-38.172c-3.145,5.396 -4.947,11.672 -4.947,18.367c0,12.675 6.45,23.858 16.253,30.41c-5.989,-0.19 -11.622,-1.834 -16.548,-4.57c-0.002,0.153 -0.003,0.305 -0.003,0.459c-0,17.701 12.593,32.468 29.306,35.823c-3.066,0.835 -6.293,1.281 -9.625,1.281c-2.354,0 -4.643,-0.228 -6.874,-0.655c4.65,14.515 18.142,25.077 34.129,25.372c-12.504,9.799 -28.257,15.639 -45.374,15.639c-2.948,0 -5.857,-0.172 -8.714,-0.51c16.168,10.366 35.371,16.414 56.003,16.414c67.199,-0 103.946,-55.67 103.946,-103.947c0,-1.584 -0.035,-3.159 -0.105,-4.727c7.137,-5.151 13.332,-11.585 18.23,-18.912Z" style="fill:#e5e7eb;fill-rule:nonzero;"/></svg>